<?xml version="1.0" standalone="yes"?>
<svg xmlns="http://www.w3.org/2000/svg" width="549" height="454">
<path style="fill:#000000; stroke:none;" d="M0 0L0 454L549 454L549 0L0 0z"/>
<path style="fill:#ffffff; stroke:none;" d="M185 48L184 50C185.263 49.0287 185.392 49.3062 185 48z"/>
<path style="fill:#6d6d6d; stroke:none;" d="M186 48L187 49L186 48z"/>
<path style="fill:#121212; stroke:none;" d="M185 49C193.649 57.6668 182.545 73.4878 184 84C187.134 78.8704 187.504 72.8194 188.289 67C189.169 60.4682 190.927 54.5177 189 48L185 49z"/>
<path style="fill:#808080; stroke:none;" d="M190 49L191 50L190 49M183 50L184 51L183 50z"/>
<path style="fill:#777777; stroke:none;" d="M190 51L190 54C190.696 52.4463 190.696 52.5537 190 51z"/>
<path style="fill:#999999; stroke:none;" d="M182 52L183 53L182 52z"/>
<path style="fill:#808080; stroke:none;" d="M181 53L182 54L181 53z"/>
<path style="fill:#1a1a1a; stroke:none;" d="M181 54C179.945 57.2668 176.035 64.3659 181 65C180.999 71.8485 179.295 78.2341 179 85C183.27 78.85 183.42 68.3441 184 61L180 62L183 54L181 54z"/>
<path style="fill:#626262; stroke:none;" d="M189 60L190 61L189 60z"/>
<path style="fill:#8b8b8b; stroke:none;" d="M178 65L179 66L178 65z"/>
<path style="fill:#333333; stroke:none;" d="M180 72L180 76C180.71 74.2405 180.71 73.7595 180 72z"/>
<path style="fill:#ffffff; stroke:none;" d="M187 74L188 75L187 74z"/>
<path style="fill:#aaaaaa; stroke:none;" d="M186 77L187 78L186 77z"/>
<path style="fill:#404040; stroke:none;" d="M179.333 78.6667C179.278 78.7222 179.222 79.7778 179.667 79.3333C179.722 79.2777 179.778 78.2222 179.333 78.6667z"/>
<path style="fill:#666666; stroke:none;" d="M178 81L178 85C178.71 83.2404 178.71 82.7595 178 81z"/>
<path style="fill:#808080; stroke:none;" d="M185 81L186 82L185 81M177 85L178 86L177 85z"/>
<path style="fill:#555555; stroke:none;" d="M177.333 86.6667C177.278 86.7221 177.222 87.7779 177.667 87.3333C177.722 87.2777 177.778 86.2223 177.333 86.6667z"/>
<path style="fill:#808080; stroke:none;" d="M184 86L185 87L184 86z"/>
<path style="fill:#ffffff; stroke:none;" d="M184 87L185 88L184 87z"/>
<path style="fill:#0c0c0e; stroke:none;" d="M177 88C176.403 92.0582 175.188 95.8766 175 100C177.752 96.5429 179.287 92.0112 177 88z"/>
<path style="fill:#15151a; stroke:none;" d="M182 89L181 93C182.656 91.5957 182.751 91.0465 182 89z"/>
<path style="fill:#808080; stroke:none;" d="M183.333 89.6667C183.278 89.7221 183.222 90.7779 183.667 90.3333C183.722 90.2777 183.778 89.2223 183.333 89.6667z"/>
<path style="fill:#ffffff; stroke:none;" d="M176 91L177 92L176 91z"/>
<path style="fill:#2d2d2d; stroke:none;" d="M181 93L180 98C181.475 96.0647 181.791 95.3073 181 93z"/>
<path style="fill:#808080; stroke:none;" d="M182.333 93.6667C182.278 93.7221 182.222 94.7778 182.667 94.3333C182.722 94.2777 182.778 93.2223 182.333 93.6667z"/>
<path style="fill:#ffffff; stroke:none;" d="M175 94L176 95L175 94z"/>
<path style="fill:#4e4e4e; stroke:none;" d="M181 97C180.094 99.3046 179.826 100.55 180 103C181.138 100.854 181.552 99.3594 181 97z"/>
<path style="fill:#bfbfbf; stroke:none;" d="M174 98L175 99L174 98z"/>
<path style="fill:#252525; stroke:none;" d="M179 98L179 101C179.696 99.4463 179.696 99.5537 179 98z"/>
<path style="fill:#444444; stroke:none;" d="M174 99L175 100L174 99z"/>
<path style="fill:#1d1d1d; stroke:none;" d="M173 102L173 106C174.081 104.542 174.436 103.752 175 102L173 102z"/>
<path style="fill:#404040; stroke:none;" d="M178 102L178 108C179.582 105.943 179.826 104.613 180 102L178 102z"/>
<path style="fill:#aaaaaa; stroke:none;" d="M180 103L181 104L180 103z"/>
<path style="fill:#ffffff; stroke:none;" d="M180 104L181 105L180 104z"/>
<path style="fill:#333333; stroke:none;" d="M177 107C175.608 122.841 166.335 137.863 166 154C171.329 144.194 172.694 131.672 175.71 121C176.959 116.581 179.639 111.113 177 107z"/>
<path style="fill:#aaaaaa; stroke:none;" d="M179 107L180 108L179 107z"/>
<path style="fill:#6d6d6d; stroke:none;" d="M178 110L179 111L178 110z"/>
<path style="fill:#303030; stroke:none;" d="M171.333 111.667C171.278 111.722 171.222 112.778 171.667 112.333C171.722 112.278 171.778 111.222 171.333 111.667z"/>
<path style="fill:#aaaaaa; stroke:none;" d="M178 111L179 112L178 111z"/>
<path style="fill:#808080; stroke:none;" d="M177 114L178 115L177 114z"/>
<path style="fill:#0d0d0d; stroke:none;" d="M170 115C168.718 123.713 165.688 132.298 164 141C169.439 136.914 173.136 121.066 170 115z"/>
<path style="fill:#606060; stroke:none;" d="M169.333 117.667C169.278 117.722 169.222 118.778 169.667 118.333C169.722 118.278 169.778 117.222 169.333 117.667z"/>
<path style="fill:#b6b6b6; stroke:none;" d="M168 121L169 122L168 121z"/>
<path style="fill:#808080; stroke:none;" d="M175 121L176 122L175 121z"/>
<path style="fill:#ffffff; stroke:none;" d="M167 124L168 125L167 124z"/>
<path style="fill:#767676; stroke:none;" d="M167 125L168 126L167 125z"/>
<path style="fill:#ffffff; stroke:none;" d="M172 134L173 135L172 134z"/>
<path style="fill:#464646; stroke:none;" d="M164.333 137.667C164.278 137.722 164.222 138.778 164.667 138.333C164.722 138.278 164.778 137.222 164.333 137.667z"/>
<path style="fill:#aaaaaa; stroke:none;" d="M171 137L172 138L171 137z"/>
<path style="fill:#808080; stroke:none;" d="M170 140L171 141L170 140z"/>
<path style="fill:#161616; stroke:none;" d="M163 141C161.489 152.222 156.513 162.774 155 174C161.018 169.439 160.69 156.892 162.721 150C163.72 146.608 164.956 144.088 163 141z"/>
<path style="fill:#8e8e8e; stroke:none;" d="M169 143L170 144L169 143z"/>
<path style="fill:#747474; stroke:none;" d="M162 144L163 145L162 144z"/>
<path style="fill:#999999; stroke:none;" d="M161 147L162 148L161 147M168 147L169 148L168 147z"/>
<path style="fill:#555555; stroke:none;" d="M161 148L162 149L161 148z"/>
<path style="fill:#6d6d6d; stroke:none;" d="M167 150L168 151L167 150z"/>
<path style="fill:#b9b9b9; stroke:none;" d="M160 151L161 152L160 151z"/>
<path style="fill:#151515; stroke:none;" d="M165 151C164.236 154.467 163.65 157.444 164 161C165.908 157.814 166.439 154.461 165 151z"/>
<path style="fill:#aaaaaa; stroke:none;" d="M159 154L160 155L159 154M165 158L166 159L165 158z"/>
<path style="fill:#ffffff; stroke:none;" d="M165 159L166 160L165 159z"/>
<path style="fill:#808080; stroke:none;" d="M164 161L165 162L164 161z"/>
<path style="fill:#ffffff; stroke:none;" d="M164 162L165 163L164 162M163 164L164 165L163 164z"/>
<path style="fill:#808080; stroke:none;" d="M155 170L156 171L155 170M154 173L155 174L154 173z"/>
<path style="fill:#040404; stroke:none;" d="M158 173C156.71 176.098 154.685 178.821 153.552 182.003C151.16 188.721 150.497 196.142 148.431 203C146.715 208.695 143.582 214.272 142.326 220.039C140.623 227.856 138.925 235.264 136.699 243C135.445 247.361 135.076 251.51 132 255C132.876 259.553 131.395 263.472 131 268L128 268C127.101 274.117 126.33 281.059 124.482 286.961C123.486 290.142 121.658 292.698 121 296C116.447 293.917 112.895 289.903 108 288.495C97.1988 285.389 83.3721 289.757 73 293C78.6183 295.352 84.3838 292.431 90 291.375C94.616 290.507 99.415 291.15 104 291.874C107.407 292.413 114.576 295.216 110 299C112.239 299.811 113.647 299.529 116 299C115.598 302.657 116.294 306.337 115.791 310C115.167 314.541 113.501 318.338 114 323C120.506 315.164 117.485 303.1 125 296L123 293C126.917 292.161 125.561 289.337 126.472 286C128.412 278.9 131.588 272.164 133.611 265C139.522 244.069 145.117 222.952 150.694 202C153.168 192.709 159.333 182.415 160 173L158 173z"/>
<path style="fill:#1d1d1d; stroke:none;" d="M154 174C153.201 179.428 151.241 184.469 151 190C153.569 186.3 156.651 177.876 154 174z"/>
<path style="fill:#ffffff; stroke:none;" d="M211 176L212 177L211 176z"/>
<path style="fill:#555555; stroke:none;" d="M153 177L154 178L153 177z"/>
<path style="fill:#222222; stroke:none;" d="M158 177L155 188C158.112 185.079 159.592 181.081 158 177z"/>
<path style="fill:#202020; stroke:none;" d="M210 177C211.792 179.61 213.042 181.977 214 185C216.145 180.691 214.71 177.771 210 177z"/>
<path style="fill:#666666; stroke:none;" d="M214 177L215 178L214 177M207 178L208 179L207 178z"/>
<path style="fill:#211e1e; stroke:none;" d="M201 188C204.268 185.28 207.771 181.598 210 178C204.928 179.74 202.506 182.933 201 188z"/>
<path style="fill:#100c0e; stroke:none;" d="M212 179C211.345 182.579 211.181 185.438 212 189C214.223 185.689 213.836 182.46 212 179z"/>
<path style="fill:#aaaaaa; stroke:none;" d="M215 179L216 180L215 179z"/>
<path style="fill:#555555; stroke:none;" d="M158 182L159 183L158 182z"/>
<path style="fill:#808080; stroke:none;" d="M192 182L193 183L192 182z"/>
<path style="fill:#ffffff; stroke:none;" d="M193 182L194 183L193 182z"/>
<path style="fill:#282828; stroke:none;" d="M188 187L192 185L191 193C192.61 191.002 194.688 188.103 193.93 185.319C192.72 180.873 188.834 184.922 188 187z"/>
<path style="fill:#201a1a; stroke:none;" d="M208 183C206.157 186.326 204.158 189.364 203 193C205.748 190.67 207.692 187.772 210 185L210 193C212.719 191.427 213.373 190.075 214 187C212.805 187.598 213.023 187.466 212 189L211 183L208 183z"/>
<path style="fill:#808080; stroke:none;" d="M151 184L152 185L151 184z"/>
<path style="fill:#555555; stroke:none;" d="M188 184L189 185L188 184z"/>
<path style="fill:#aa55aa; stroke:none;" d="M194 184L195 185L194 184z"/>
<path style="fill:#030303; stroke:none;" d="M186 200C189.639 195.906 191.552 190.426 192 185C185.948 188.225 185.79 193.816 186 200z"/>
<path style="fill:#353535; stroke:none;" d="M156 186C153.247 192.157 151.141 198.21 151 205C153.976 200.828 157.714 190.94 156 186z"/>
<path style="fill:#ffffff; stroke:none;" d="M157 186L158 187L157 186z"/>
<path style="fill:#555555; stroke:none;" d="M187 186L188 187L187 186z"/>
<path style="fill:#ffffff; stroke:none;" d="M194 186L195 187L194 186z"/>
<path style="fill:#2e2e2e; stroke:none;" d="M171 191C173.375 190.466 174.625 190.466 177 191L176 187C173.363 187.939 172.382 188.58 171 191z"/>
<path style="fill:#999999; stroke:none;" d="M176 187L177 188L176 187z"/>
<path style="fill:#282325; stroke:none;" d="M187 187C182.679 194.035 176.961 201.343 174 209L177 210L183 202L182 206C183.584 205.218 184.6 204.13 186 203C184.922 197.491 188.186 191.906 187 187z"/>
<path style="fill:#666666; stroke:none;" d="M199 188L200 189L199 188z"/>
<path style="fill:#101010; stroke:none;" d="M200 188C196.021 193.638 193.35 200.521 191 207C195.613 204.03 201.09 193.477 200 188z"/>
<path style="fill:#808080; stroke:none;" d="M150 189L151 190L150 189z"/>
<path style="fill:#151515; stroke:none;" d="M173 189L175 194C175.873 191.388 175.276 190.453 173 189z"/>
<path style="fill:#555555; stroke:none;" d="M185 189L186 190L185 189z"/>
<path style="fill:#808080; stroke:none;" d="M193 189L194 190L193 189z"/>
<path style="fill:#131313; stroke:none;" d="M150 190C148.202 198.689 144.389 207.082 144 216C147.082 210.329 153.304 195.909 150 190z"/>
<path style="fill:#808080; stroke:none;" d="M213 190L214 191L213 190z"/>
<path style="fill:#ffffff; stroke:none;" d="M169 191L170 192L169 191z"/>
<path style="fill:#18181c; stroke:none;" d="M170 191C168.849 193.987 167.739 196.882 167 200C170.101 197.876 171.268 194.576 170 191z"/>
<path style="fill:#ffffff; stroke:none;" d="M197 191L198 192L197 191z"/>
<path style="fill:#808080; stroke:none;" d="M155 192L156 193L155 192z"/>
<path style="fill:#555555; stroke:none;" d="M169 192L170 193L169 192z"/>
<path style="fill:#ffffff; stroke:none;" d="M209 192L210 193L209 192z"/>
<path style="fill:#1f1d20; stroke:none;" d="M189 193C188.499 195.686 188.117 198.27 188 201C189.874 198.484 190.535 196.097 191 193L189 193z"/>
<path style="fill:#1c1c1c; stroke:none;" d="M201 193C200.198 196.028 199.311 198.876 199 202C201.588 199.323 202.449 196.661 203 193L201 193z"/>
<path style="fill:#ffffff; stroke:none;" d="M210 193L211 194L210 193z"/>
<path style="fill:#aaaaaa; stroke:none;" d="M168 194L169 195L168 194z"/>
<path style="fill:#808080; stroke:none;" d="M175 194L176 195L175 194z"/>
<path style="fill:#ffffff; stroke:none;" d="M219 195L220 196L219 195z"/>
<path style="fill:#555555; stroke:none;" d="M148 196L149 197L148 196z"/>
<path style="fill:#252525; stroke:none;" d="M217 196C212.346 204.09 204.412 216.343 195 219C198.987 222.762 202.367 219.593 205.91 216.409C211.217 211.641 219.779 203.626 219 196L217 196z"/>
<path style="fill:#636363; stroke:none;" d="M219 196L220 197L219 196z"/>
<path style="fill:#808080; stroke:none;" d="M167 197L168 198L167 197z"/>
<path style="fill:#0f0d0f; stroke:none;" d="M185 197C185.094 199.205 185.356 200.894 186 203C183.81 204.261 182.953 205.649 182 208C187.733 208.868 187.901 203.613 188 199C185.903 199 186.24 198.459 185 197z"/>
<path style="fill:#808080; stroke:none;" d="M153 199L154 200L153 199M189 199L190 200L189 199z"/>
<path style="fill:#666666; stroke:none;" d="M219 199L220 200L219 199z"/>
<path style="fill:#ffffff; stroke:none;" d="M173 201L174 202L173 201z"/>
<path style="fill:#cccccc; stroke:none;" d="M200 201L201 202L200 201z"/>
<path style="fill:#212121; stroke:none;" d="M150 202C149.813 209.972 145.692 217.083 145 225C148.966 219.753 153.487 208.122 150 202z"/>
<path style="fill:#929292; stroke:none;" d="M199.333 202.667C199.278 202.722 199.222 203.778 199.667 203.333C199.722 203.278 199.778 202.222 199.333 202.667z"/>
<path style="fill:#808080; stroke:none;" d="M146 203L147 204L146 203z"/>
<path style="fill:#4e3b4e; stroke:none;" d="M172 203L173 204L172 203z"/>
<path style="fill:#ffffff; stroke:none;" d="M172 204L172 207C172.696 205.446 172.696 205.554 172 204z"/>
<path style="fill:#806a80; stroke:none;" d="M180 204L181 205L180 204z"/>
<path style="fill:#ffffff; stroke:none;" d="M199 204L200 205L199 204M187 205L188 206L187 205z"/>
<path style="fill:#242124; stroke:none;" d="M190 205C187.592 208.021 185.798 208.486 182 208C183.263 215.978 188.652 210.838 192 215C193.053 212.414 192.795 209.782 193 207C190.821 206.274 191.22 206.561 192 205L190 205z"/>
<path style="fill:#666666; stroke:none;" d="M198 205L199 206L198 205z"/>
<path style="fill:#555555; stroke:none;" d="M145 206L146 207L145 206z"/>
<path style="fill:#aa80aa; stroke:none;" d="M179 206L180 207L179 206z"/>
<path style="fill:#555555; stroke:none;" d="M151 207L152 208L151 207z"/>
<path style="fill:#201c1c; stroke:none;" d="M165 207C165.021 209.274 164.633 212.492 166.179 214.393C169.887 218.951 175.059 212.271 176 209C173.706 208.697 172.788 208.421 171 207C170.221 208.769 170.088 210.036 170 212C171.797 212 171.521 211.986 173 211C168.658 215.515 166.796 211.894 167 207L165 207z"/>
<path style="fill:#9f9f9f; stroke:none;" d="M178 207L179 208L178 207z"/>
<path style="fill:#555555; stroke:none;" d="M197.333 207.667C197.278 207.722 197.222 208.778 197.667 208.333C197.722 208.278 197.778 207.222 197.333 207.667z"/>
<path style="fill:#ffffff; stroke:none;" d="M151 208L152 209L151 208z"/>
<path style="fill:#555555; stroke:none;" d="M144 210L145 211L144 210z"/>
<path style="fill:#ffaaff; stroke:none;" d="M150 211L151 212L150 211z"/>
<path style="fill:#505050; stroke:none;" d="M196 211L197 212L196 211z"/>
<path style="fill:#3c3c3e; stroke:none;" d="M189 212C190.774 216.566 192.012 220.52 197 222C194.894 218.696 192.994 215.819 192 212L189 212z"/>
<path style="fill:#6d6d6d; stroke:none;" d="M183 213L184 214L183 213z"/>
<path style="fill:#999999; stroke:none;" d="M149 214L150 215L149 214z"/>
<path style="fill:#666666; stroke:none;" d="M184.667 214.333C184.222 214.778 185.278 214.722 185.333 214.667C185.778 214.222 184.722 214.278 184.667 214.333M196 214L197 215L196 214z"/>
<path style="fill:#ffffff; stroke:none;" d="M149 215L150 216L149 215z"/>
<path style="fill:#1b1b1d; stroke:none;" d="M194 215C193.598 216.944 193.598 217.056 194 219C194.911 217.623 195.404 216.56 196 215L194 215z"/>
<path style="fill:#ffffff; stroke:none;" d="M190 216L191 217L190 216z"/>
<path style="fill:#404042; stroke:none;" d="M195 216C195.578 218.697 196.261 218.789 199 219C197.778 217.267 196.991 216.849 195 216z"/>
<path style="fill:#550055; stroke:none;" d="M205 216L206 217L205 216z"/>
<path style="fill:#808080; stroke:none;" d="M148 218L149 219L148 218z"/>
<path style="fill:#6d6d6d; stroke:none;" d="M191 218L192 219L191 218z"/>
<path style="fill:#ffffff; stroke:none;" d="M202 219L203 220L202 219z"/>
<path style="fill:#555555; stroke:none;" d="M147 220L148 221L147 220z"/>
<path style="fill:#808080; stroke:none;" d="M147 221L148 222L147 221z"/>
<path style="fill:#242024; stroke:none;" d="M141 223L141 226C141.696 224.446 141.696 224.554 141 223z"/>
<path style="fill:#808080; stroke:none;" d="M146 223L147 224L146 223z"/>
<path style="fill:#141414; stroke:none;" d="M144 225L144 229C144.71 227.24 144.71 226.759 144 225z"/>
<path style="fill:#191919; stroke:none;" d="M140 226C139.192 231.474 137.119 236.396 137 242C139.059 237.751 142.428 230.294 140 226z"/>
<path style="fill:#555555; stroke:none;" d="M139 229L140 230L139 229z"/>
<path style="fill:#181818; stroke:none;" d="M143 229C140.354 244.369 132.372 259.284 131 275C136.853 265.743 138.582 252.48 141.573 242C142.752 237.868 144.609 233.125 143 229z"/>
<path style="fill:#404040; stroke:none;" d="M144.333 229.667C144.278 229.722 144.222 230.778 144.667 230.333C144.722 230.278 144.778 229.222 144.333 229.667z"/>
<path style="fill:#808080; stroke:none;" d="M143 234L144 235L143 234z"/>
<path style="fill:#333333; stroke:none;" d="M136 240L136 243C136.696 241.446 136.696 241.554 136 240z"/>
<path style="fill:#808080; stroke:none;" d="M135 242L136 243L135 242z"/>
<path style="fill:#555555; stroke:none;" d="M135.333 243.667C135.278 243.722 135.222 244.778 135.667 244.333C135.722 244.278 135.778 243.222 135.333 243.667z"/>
<path style="fill:#717171; stroke:none;" d="M134 245L134 248C134.696 246.446 134.696 246.554 134 245z"/>
<path style="fill:#242424; stroke:none;" d="M135 245L132 255C135.075 252.69 136.288 248.632 135 245z"/>
<path style="fill:#ffffff; stroke:none;" d="M133 248L134 249L133 248z"/>
<path style="fill:#9f9f9f; stroke:none;" d="M133 249L134 250L133 249z"/>
<path style="fill:#555555; stroke:none;" d="M138 251L139 252L138 251z"/>
<path style="fill:#888888; stroke:none;" d="M132.333 252.667C132.278 252.722 132.222 253.778 132.667 253.333C132.722 253.278 132.778 252.222 132.333 252.667z"/>
<path style="fill:#aaaaaa; stroke:none;" d="M131 255L132 256L131 255z"/>
<path style="fill:#555555; stroke:none;" d="M137 255L138 256L137 255z"/>
<path style="fill:#555571; stroke:none;" d="M131 256L132 257L131 256z"/>
<path style="fill:#1a1a1c; stroke:none;" d="M132 256C130.354 259.876 129.539 263.829 129 268C132.256 265.379 133.507 259.87 132 256z"/>
<path style="fill:#ffffff; stroke:none;" d="M527 256L528 257L527 256z"/>
<path style="fill:#585858; stroke:none;" d="M533 256C533 257.797 533.014 257.521 534 259C524.344 260.22 514.663 260.522 504.996 261.495C500.931 261.905 496.508 261.451 494 265C501.76 264.667 509.309 262.943 517 262.171C523.13 261.555 528.995 261.633 535 260C534.489 258.048 534.267 257.543 533 256z"/>
<path style="fill:#ffffff; stroke:none;" d="M534 256L535 257L534 256M519 257L520 258L519 257z"/>
<path style="fill:#808080; stroke:none;" d="M521 257C522.769 257.779 524.036 257.912 526 258C524.231 257.221 522.964 257.088 521 257z"/>
<path style="fill:#747474; stroke:none;" d="M485 262C489.288 264.518 493.351 262.913 498 262.289C505.914 261.226 515.089 259.866 523 261C526.409 259.026 530.446 260.126 534 258C529.489 256.679 525.596 257.752 521 257.961C508.824 258.513 497.067 260.467 485 262z"/>
<path style="fill:#ffffff; stroke:none;" d="M130 258L131 259L130 258z"/>
<path style="fill:#bfbfbf; stroke:none;" d="M130 259L131 260L130 259z"/>
<path style="fill:#ffffff; stroke:none;" d="M500 259L501 260L500 259z"/>
<path style="fill:#3e3e3e; stroke:none;" d="M523 259C524.248 259.685 524.548 259.749 526 260C524.752 259.315 524.452 259.251 523 259z"/>
<path style="fill:#ffffff; stroke:none;" d="M136 260L137 261L136 260M494 260L495 261L494 260z"/>
<path style="fill:#383838; stroke:none;" d="M518.667 260.333C518.222 260.778 519.278 260.722 519.333 260.667C519.778 260.222 518.722 260.278 518.667 260.333z"/>
<path style="fill:#808080; stroke:none;" d="M532.667 260.333C532.222 260.778 533.278 260.722 533.333 260.667C533.778 260.222 532.722 260.278 532.667 260.333z"/>
<path style="fill:#9f9f9f; stroke:none;" d="M487.667 261.333C487.222 261.778 488.278 261.722 488.333 261.667C488.778 261.222 487.722 261.278 487.667 261.333z"/>
<path style="fill:#aaaaaa; stroke:none;" d="M526 261L527 262L526 261z"/>
<path style="fill:#999999; stroke:none;" d="M528.667 261.333C528.222 261.778 529.278 261.722 529.333 261.667C529.778 261.222 528.722 261.278 528.667 261.333z"/>
<path style="fill:#ffffff; stroke:none;" d="M480 262L481 263L480 262z"/>
<path style="fill:#b6b6b6; stroke:none;" d="M481 262C482.506 262.683 483.315 262.826 485 263C483.494 262.317 482.685 262.174 481 262z"/>
<path style="fill:#a4a4a4; stroke:none;" d="M514 262C516.613 263.098 519.164 262.993 522 263C519.387 261.902 516.835 262.007 514 262z"/>
<path style="fill:#808080; stroke:none;" d="M135 263L136 264L135 263z"/>
<path style="fill:#ffffff; stroke:none;" d="M474 263L475 264L474 263z"/>
<path style="fill:#aaaaaa; stroke:none;" d="M475.667 263.333C475.222 263.778 476.278 263.722 476.333 263.667C476.778 263.222 475.722 263.278 475.667 263.333z"/>
<path style="fill:#707070; stroke:none;" d="M474 264L486 267L485 263C481.237 263.01 477.701 263.313 474 264z"/>
<path style="fill:#5d5d5d; stroke:none;" d="M485 263L486 267C488.377 266.428 490.558 266.109 493 266L492 263C489.591 263.272 487.419 263.201 485 263z"/>
<path style="fill:#484848; stroke:none;" d="M492 263L492 265L494 265L494 263L492 263z"/>
<path style="fill:#bfbfbf; stroke:none;" d="M509 263C510.248 263.685 510.548 263.749 512 264C510.752 263.315 510.452 263.251 509 263z"/>
<path style="fill:#ffffff; stroke:none;" d="M135 264L136 265L135 264z"/>
<path style="fill:#9f9f9f; stroke:none;" d="M469 264C470.769 264.779 472.036 264.912 474 265C472.231 264.221 470.964 264.088 469 264z"/>
<path style="fill:#555555; stroke:none;" d="M466 268C469.183 268.61 474.742 268.396 477 266L483 267L483 264C477.507 264.437 470.756 265.132 466 268z"/>
<path style="fill:#c8c8c8; stroke:none;" d="M499 264C500.769 264.779 502.036 264.912 504 265C502.231 264.221 500.964 264.088 499 264z"/>
<path style="fill:#ffffff; stroke:none;" d="M504 264L505 265L504 264M463 265L464 266L463 265z"/>
<path style="fill:#959595; stroke:none;" d="M464 265C465.248 265.685 465.549 265.749 467 266C465.752 265.315 465.452 265.251 464 265z"/>
<path style="fill:#787878; stroke:none;" d="M461 266C465.167 267.745 469.622 266.346 474 266C469.883 264.289 465.353 265.813 461 266z"/>
<path style="fill:#999999; stroke:none;" d="M493 265L494 266L493 265z"/>
<path style="fill:#ffffff; stroke:none;" d="M494.667 265.333C494.222 265.778 495.278 265.722 495.333 265.667C495.778 265.222 494.722 265.278 494.667 265.333z"/>
<path style="fill:#bfbfbf; stroke:none;" d="M496.667 265.333C496.222 265.778 497.278 265.722 497.333 265.667C497.778 265.222 496.722 265.278 496.667 265.333z"/>
<path style="fill:#ffffff; stroke:none;" d="M498 265L499 266L498 265M456 266L457 267L456 266z"/>
<path style="fill:#6b6b6f; stroke:none;" d="M450 268C454.448 269.867 459.351 268.588 464 268L463 270L467 270C463.188 264.052 455.735 267.5 450 268z"/>
<path style="fill:#747474; stroke:none;" d="M477 266C477.98 267.783 477.908 267.594 480 268C478.777 266.805 478.58 266.684 477 266z"/>
<path style="fill:#bfbfbf; stroke:none;" d="M487 266L488 267L487 266z"/>
<path style="fill:#ffffff; stroke:none;" d="M488 266C489.506 266.683 490.315 266.826 492 267C490.494 266.317 489.685 266.174 488 266z"/>
<path style="fill:#808080; stroke:none;" d="M134 267L135 268L134 267z"/>
<path style="fill:#ffffff; stroke:none;" d="M451.667 267.333C451.222 267.778 452.278 267.722 452.333 267.667C452.778 267.222 451.722 267.278 451.667 267.333z"/>
<path style="fill:#686868; stroke:none;" d="M470 269L474 268C471.954 267.249 471.404 267.344 470 269z"/>
<path style="fill:#d5d5d5; stroke:none;" d="M448.667 268.333C448.222 268.778 449.278 268.722 449.333 268.667C449.778 268.222 448.722 268.278 448.667 268.333z"/>
<path style="fill:#4e4e4e; stroke:none;" d="M438 271L433 275C439.882 276.836 449.155 273.706 455.999 272C459.392 271.154 461.921 270.893 464 268C455.634 268.66 446.233 272.723 438 271z"/>
<path style="fill:#808080; stroke:none;" d="M473.667 268.333C473.222 268.778 474.278 268.722 474.333 268.667C474.778 268.222 473.722 268.278 473.667 268.333z"/>
<path style="fill:#ffffff; stroke:none;" d="M476 268L477 269L476 268z"/>
<path style="fill:#505050; stroke:none;" d="M133 269L134 270L133 269z"/>
<path style="fill:#aaaaaa; stroke:none;" d="M211.667 269.333C211.222 269.778 212.278 269.722 212.333 269.667C212.778 269.222 211.722 269.278 211.667 269.333z"/>
<path style="fill:#5e5e5e; stroke:none;" d="M213 269L214 270L213 269z"/>
<path style="fill:#292929; stroke:none;" d="M197 273C206.617 276.754 218.116 264.934 225 277C226.354 272.69 223.018 270.542 218.999 269.904C211.593 268.727 204.1 271.158 197 273z"/>
<path style="fill:#a1a1a1; stroke:none;" d="M216 269C218.052 269.874 219.747 269.953 222 270C219.948 269.126 218.253 269.047 216 269z"/>
<path style="fill:#ffffff; stroke:none;" d="M442 269C443.248 269.685 443.548 269.749 445 270C443.752 269.315 443.452 269.251 442 269z"/>
<path style="fill:#bfbfbf; stroke:none;" d="M445 269L446 270L445 269z"/>
<path style="fill:#79797b; stroke:none;" d="M446 269C448.486 270.635 450.083 270.555 453 270C450.668 269.015 448.543 269.019 446 269z"/>
<path style="fill:#929292; stroke:none;" d="M467.667 269.333C467.222 269.778 468.278 269.722 468.333 269.667C468.778 269.222 467.722 269.278 467.667 269.333z"/>
<path style="fill:#ffffff; stroke:none;" d="M469 269L470 270L469 269z"/>
<path style="fill:#808080; stroke:none;" d="M470 269C471.248 269.685 471.549 269.749 473 270C471.752 269.315 471.452 269.251 470 269M133 270L134 271L133 270M206 270L207 271L206 270z"/>
<path style="fill:#929292; stroke:none;" d="M223 270L224 271L223 270z"/>
<path style="fill:#a5a5a5; stroke:none;" d="M440.667 270.333C440.222 270.778 441.278 270.722 441.333 270.667C441.778 270.222 440.722 270.278 440.667 270.333z"/>
<path style="fill:#797979; stroke:none;" d="M439 271C441.587 272.065 443.321 271.781 446 271C443.54 270.112 441.585 270.533 439 271z"/>
<path style="fill:#bfbfbf; stroke:none;" d="M463 270C464.248 270.685 464.549 270.749 466 271C464.752 270.315 464.452 270.251 463 270z"/>
<path style="fill:#ffffff; stroke:none;" d="M466 270L467 271L466 270z"/>
<path style="fill:#666666; stroke:none;" d="M127 271L128 272L127 271M201 271C202.248 271.685 202.549 271.749 204 272C202.752 271.315 202.452 271.251 201 271z"/>
<path style="fill:#020202; stroke:none;" d="M194 275C200.684 277.798 212.745 270.681 218.31 276.73C219.7 278.241 219.612 281.093 220 283C225.108 278.913 226.221 272.131 217.996 271.137C210.351 270.214 201.476 273.55 194 275z"/>
<path style="fill:#929292; stroke:none;" d="M224 271L225 272L224 271z"/>
<path style="fill:#767676; stroke:none;" d="M428 273C431.647 274.527 435.629 274.356 438 271L428 273z"/>
<path style="fill:#c4c4c4; stroke:none;" d="M457 271C458.248 271.685 458.548 271.749 460 272C458.752 271.315 458.452 271.251 457 271z"/>
<path style="fill:#ffffff; stroke:none;" d="M460 271L461 272L460 271z"/>
<path style="fill:#555555; stroke:none;" d="M132.333 272.667C132.278 272.722 132.222 273.778 132.667 273.333C132.722 273.278 132.778 272.222 132.333 272.667z"/>
<path style="fill:#606060; stroke:none;" d="M197.667 272.333C197.222 272.778 198.278 272.722 198.333 272.667C198.778 272.222 197.722 272.278 197.667 272.333z"/>
<path style="fill:#ffffff; stroke:none;" d="M225 272L226 273L225 272z"/>
<path style="fill:#969696; stroke:none;" d="M431.667 272.333C431.222 272.778 432.278 272.722 432.333 272.667C432.778 272.222 431.722 272.278 431.667 272.333z"/>
<path style="fill:#ffffff; stroke:none;" d="M454 272L455 273L454 272z"/>
<path style="fill:#404040; stroke:none;" d="M195.667 273.333C195.222 273.778 196.278 273.722 196.333 273.667C196.778 273.222 195.722 273.278 195.667 273.333z"/>
<path style="fill:#ffffff; stroke:none;" d="M448 273C449.769 273.779 451.036 273.912 453 274C451.231 273.221 449.964 273.088 448 273M188 274L189 275L188 274z"/>
<path style="fill:#1e1e1e; stroke:none;" d="M189 274L192 278C190.203 278 190.479 278.014 189 279C192.587 280.089 196.367 278.516 200 277.804C206.495 276.53 211.679 275.697 218 278C216.662 284.428 221.056 285.825 224 280C222.078 280.901 222.001 281.076 221 283C220.263 280.97 220.095 277.611 218.387 276.14C212.693 271.239 200.601 275.945 194 276C195.479 275.014 195.203 275 197 275C194.387 273.902 191.835 274.007 189 274z"/>
<path style="fill:#ffffff; stroke:none;" d="M422 274L423 275L422 274z"/>
<path style="fill:#717171; stroke:none;" d="M402 280C407.278 282.153 421.731 278.646 425 274C417.296 275.594 409.578 277.87 402 280z"/>
<path style="fill:#666666; stroke:none;" d="M425 276L434 276C431.161 273.849 427.518 273.118 425 276M440 274C441.506 274.683 442.315 274.826 444 275C442.494 274.317 441.685 274.174 440 274z"/>
<path style="fill:#ffffff; stroke:none;" d="M184 275L185 276L184 275z"/>
<path style="fill:#555555; stroke:none;" d="M185 275L186 276L185 275z"/>
<path style="fill:#343434; stroke:none;" d="M183 276C185.756 277.077 188.107 276.532 191 276C188.244 274.923 185.893 275.468 183 276z"/>
<path style="fill:#dfdfdf; stroke:none;" d="M417.667 275.333C417.222 275.778 418.278 275.722 418.333 275.667C418.778 275.222 417.722 275.278 417.667 275.333z"/>
<path style="fill:#4c4c4c; stroke:none;" d="M396 283L396 285C403.959 284.83 412.325 282.218 420 280.151C423.899 279.101 427.73 278.436 431 276C420.491 273.752 406.413 280.862 396 283z"/>
<path style="fill:#929292; stroke:none;" d="M439 275L440 276L439 275z"/>
<path style="fill:#aaaaaa; stroke:none;" d="M125 276L126 277L125 276z"/>
<path style="fill:#131313; stroke:none;" d="M180 279C184.475 280.991 188.41 280.273 192 277C187.732 276.111 184.022 277.46 180 279z"/>
<path style="fill:#767676; stroke:none;" d="M207 276C209.613 277.098 212.165 276.993 215 277C212.387 275.902 209.836 276.007 207 276z"/>
<path style="fill:#ffffff; stroke:none;" d="M415 276L416 277L415 276z"/>
<path style="fill:#949494; stroke:none;" d="M433 276C434.248 276.685 434.548 276.749 436 277C434.752 276.315 434.452 276.251 433 276z"/>
<path style="fill:#5d5d5d; stroke:none;" d="M125 277L126 278L125 277z"/>
<path style="fill:#232323; stroke:none;" d="M170 280C171.769 280.779 173.036 280.912 175 281L174 283C178.116 282.823 182.017 282.03 186 281C183.948 280.126 182.253 280.047 180 280C181.856 278.952 182.944 278.487 185 278C180.182 276.035 174.725 278.489 170 280z"/>
<path style="fill:#929292; stroke:none;" d="M201.667 277.333C201.222 277.778 202.278 277.722 202.333 277.667C202.778 277.222 201.722 277.278 201.667 277.333z"/>
<path style="fill:#808080; stroke:none;" d="M225.333 277.667C225.278 277.722 225.222 278.778 225.667 278.333C225.722 278.278 225.778 277.222 225.333 277.667z"/>
<path style="fill:#bfbfbf; stroke:none;" d="M410 277C411.248 277.685 411.549 277.749 413 278C411.752 277.315 411.452 277.251 410 277z"/>
<path style="fill:#9f9f9f; stroke:none;" d="M429 277C430.506 277.683 431.315 277.826 433 278C431.494 277.317 430.685 277.174 429 277z"/>
<path style="fill:#ffffff; stroke:none;" d="M124 278L125 279L124 278z"/>
<path style="fill:#222222; stroke:none;" d="M125 278L123 284C125.555 282.35 126.098 280.88 125 278z"/>
<path style="fill:#171717; stroke:none;" d="M129 278C127.508 282.418 126.11 286.293 126 291C128.669 287.432 130.679 282.313 129 278z"/>
<path style="fill:#808080; stroke:none;" d="M174 278L175 279L174 278z"/>
<path style="fill:#505050; stroke:none;" d="M196 278L197 279L196 278z"/>
<path style="fill:#999999; stroke:none;" d="M197 278L198 279L197 278z"/>
<path style="fill:#cccccc; stroke:none;" d="M426.667 278.333C426.222 278.778 427.278 278.722 427.333 278.667C427.778 278.222 426.722 278.278 426.667 278.333z"/>
<path style="fill:#494949; stroke:none;" d="M124 279L125 280L124 279z"/>
<path style="fill:#808080; stroke:none;" d="M171 279L172 280L171 279M192 279L193 280L192 279z"/>
<path style="fill:#363636; stroke:none;" d="M224 279L225 280L224 279z"/>
<path style="fill:#ffffff; stroke:none;" d="M403 279L404 280L403 279z"/>
<path style="fill:#929292; stroke:none;" d="M422 279L423 280L422 279z"/>
<path style="fill:#dbdbdb; stroke:none;" d="M423 279C424.248 279.685 424.548 279.749 426 280C424.752 279.315 424.452 279.251 423 279z"/>
<path style="fill:#ffffff; stroke:none;" d="M418 280C419.248 280.685 419.549 280.749 421 281C419.752 280.315 419.452 280.251 418 280M123 281L124 282L123 281M162 281L163 282L162 281z"/>
<path style="fill:#555555; stroke:none;" d="M163 281L164 282L163 281z"/>
<path style="fill:#2e2e2e; stroke:none;" d="M164 283L170 282C167.471 280.961 165.824 280.907 164 283z"/>
<path style="fill:#111111; stroke:none;" d="M167 283C170.431 284.836 172.824 284.163 175 281C171.95 281.154 169.75 281.671 167 283z"/>
<path style="fill:#ffffff; stroke:none;" d="M395.667 281.333C395.222 281.778 396.278 281.722 396.333 281.667C396.778 281.222 395.722 281.278 395.667 281.333z"/>
<path style="fill:#69696d; stroke:none;" d="M382 286C387.62 288.01 395.679 284.103 401 282C395.387 280.009 387.573 284.51 382 286z"/>
<path style="fill:#212121; stroke:none;" d="M125 293C128.49 294.349 131.514 292.906 135 291.908C140.668 290.286 146.382 288.785 152 287C154.212 289.494 156.906 288.566 160 288C159.528 286.584 159.186 286.186 158 285L164 284C162.964 285.186 162.661 285.604 162 287C164.775 286.59 167.327 285.851 170 285C168.33 283.33 167.424 284.303 168 282C153.361 282.989 139.095 289.028 125 293z"/>
<path style="fill:#808080; stroke:none;" d="M179 282L180 283L179 282z"/>
<path style="fill:#d5d5d5; stroke:none;" d="M391.667 282.333C391.222 282.778 392.278 282.722 392.333 282.667C392.778 282.222 391.722 282.278 391.667 282.333z"/>
<path style="fill:#aaaaaa; stroke:none;" d="M393 282L394 283L393 282z"/>
<path style="fill:#7a7a7a; stroke:none;" d="M409 282C410.248 282.685 410.548 282.749 412 283C410.752 282.315 410.452 282.251 409 282z"/>
<path style="fill:#ffffff; stroke:none;" d="M412 282L413 283L412 282z"/>
<path style="fill:#555555; stroke:none;" d="M222 283L223 284L222 283z"/>
<path style="fill:#ffffff; stroke:none;" d="M389 283L390 284L389 283z"/>
<path style="fill:#b3b3b3; stroke:none;" d="M390 283L391 284L390 283z"/>
<path style="fill:#808080; stroke:none;" d="M405 283C406.506 283.683 407.315 283.826 409 284C407.494 283.317 406.685 283.174 405 283z"/>
<path style="fill:#121013; stroke:none;" d="M123 284L121 293C123.838 290.389 124.655 287.797 125 284L123 284z"/>
<path style="fill:#ffffff; stroke:none;" d="M152 284L153 285L152 284z"/>
<path style="fill:#808080; stroke:none;" d="M153 284L154 285L153 284M217 284L218 285L217 284z"/>
<path style="fill:#ffffff; stroke:none;" d="M385 284L386 285L385 284z"/>
<path style="fill:#bfbfbf; stroke:none;" d="M386 284L387 285L386 284z"/>
<path style="fill:#565658; stroke:none;" d="M382 289C387.505 290.688 394.488 287.141 400 286C393.959 282.859 387.472 285.945 382 289z"/>
<path style="fill:#808080; stroke:none;" d="M402.667 284.333C402.222 284.778 403.278 284.722 403.333 284.667C403.778 284.222 402.722 284.278 402.667 284.333M96 285C97.7691 285.779 99.0359 285.912 101 286C99.231 285.221 97.9641 285.088 96 285z"/>
<path style="fill:#ffffff; stroke:none;" d="M101 285L102 286L101 285z"/>
<path style="fill:#808080; stroke:none;" d="M102 285C103.506 285.683 104.315 285.826 106 286C104.494 285.317 103.685 285.174 102 285M151 285L152 286L151 285z"/>
<path style="fill:#aaaaaa; stroke:none;" d="M168.667 285.333C168.222 285.778 169.278 285.722 169.333 285.667C169.778 285.222 168.722 285.278 168.667 285.333M218.667 285.333C218.222 285.778 219.278 285.722 219.333 285.667C219.778 285.222 218.722 285.278 218.667 285.333z"/>
<path style="fill:#ffffff; stroke:none;" d="M220 285L221 286L220 285z"/>
<path style="fill:#949494; stroke:none;" d="M383.667 285.333C383.222 285.778 384.278 285.722 384.333 285.667C384.778 285.222 383.722 285.278 383.667 285.333z"/>
<path style="fill:#aaaaaa; stroke:none;" d="M400.667 285.333C400.222 285.778 401.278 285.722 401.333 285.667C401.778 285.222 400.722 285.278 400.667 285.333z"/>
<path style="fill:#242424; stroke:none;" d="M66 294C70.1357 295.256 74.0509 293.015 78 291.734C84.7958 289.529 90.8405 288.001 98 288C89.1576 282.738 74.4255 290.498 66 294z"/>
<path style="fill:#373737; stroke:none;" d="M95 286C99.0373 287.694 103.729 286.961 107.996 288.313C112.117 289.619 114.908 292.815 119 294C114.744 285.168 103.443 286 95 286z"/>
<path style="fill:#808080; stroke:none;" d="M108 286L109 287L108 286z"/>
<path style="fill:#555555; stroke:none;" d="M122 286L123 287L122 286z"/>
<path style="fill:#808080; stroke:none;" d="M128 286L129 287L128 286z"/>
<path style="fill:#101010; stroke:none;" d="M153 286L154 288C155.635 287.455 155.455 287.635 156 286L153 286z"/>
<path style="fill:#808080; stroke:none;" d="M165 286L166 287L165 286z"/>
<path style="fill:#ffffff; stroke:none;" d="M381 286L382 287L381 286z"/>
<path style="fill:#cccccc; stroke:none;" d="M397.667 286.333C397.222 286.778 398.278 286.722 398.333 286.667C398.778 286.222 397.722 286.278 397.667 286.333z"/>
<path style="fill:#ffffff; stroke:none;" d="M399 286L400 287L399 286z"/>
<path style="fill:#1a1a1a; stroke:none;" d="M101 287C102.769 287.779 104.036 287.912 106 288C104.231 287.221 102.964 287.088 101 287z"/>
<path style="fill:#555555; stroke:none;" d="M110.667 287.333C110.222 287.778 111.278 287.722 111.333 287.667C111.778 287.222 110.722 287.278 110.667 287.333z"/>
<path style="fill:#808080; stroke:none;" d="M112 287L113 288L112 287z"/>
<path style="fill:#121212; stroke:none;" d="M123 293C123.661 294.396 123.964 294.814 125 296C123.076 297.001 122.902 297.077 122 299C125.592 298.079 134.428 296.853 135 293C139.987 292.562 148.787 290.977 152 287C142.795 289.105 132.458 294.535 123 293z"/>
<path style="fill:#555555; stroke:none;" d="M160 287L161 288L160 287z"/>
<path style="fill:#6c6c6c; stroke:none;" d="M367 292C371.631 291.376 375.859 290.174 380 288C375.992 286.814 369.54 288.649 367 292z"/>
<path style="fill:#505053; stroke:none;" d="M379 289C380.58 288.316 380.777 288.195 382 287C380.42 287.684 380.223 287.805 379 289z"/>
<path style="fill:#333334; stroke:none;" d="M379 289C381.462 289.697 382.665 289.11 385 288C382.63 287.411 381.293 288.045 379 289z"/>
<path style="fill:#999999; stroke:none;" d="M393 287L394 288L393 287z"/>
<path style="fill:#ffffff; stroke:none;" d="M394 287L395 288L394 287z"/>
<path style="fill:#0d0d0d; stroke:none;" d="M85 289C87.6462 289.815 90.2259 289.213 93 289C90.1936 287.854 87.9286 288.308 85 289z"/>
<path style="fill:#ffffff; stroke:none;" d="M371.667 288.333C371.222 288.778 372.278 288.722 372.333 288.667C372.778 288.222 371.722 288.278 371.667 288.333z"/>
<path style="fill:#999999; stroke:none;" d="M373 288L374 289L373 288z"/>
<path style="fill:#1d1d1d; stroke:none;" d="M110 289C111.458 290.081 112.248 290.436 114 291C112.457 289.733 111.952 289.511 110 289z"/>
<path style="fill:#ffffff; stroke:none;" d="M116 289L117 290L116 289M135 289L136 290L135 289z"/>
<path style="fill:#202020; stroke:none;" d="M135 293C139.436 295.73 147.249 291.519 152 290C146.591 288.065 140.463 292.182 135 293z"/>
<path style="fill:#bfbfbf; stroke:none;" d="M369 289L370 290L369 289z"/>
<path style="fill:#464649; stroke:none;" d="M343 298C347.008 299.579 351.837 298.42 356 297.65C364.703 296.041 372.58 293.74 381 291C377.182 288.639 373.1 290.52 369 291.64C360.359 294 351.725 295.982 343 298z"/>
<path style="fill:#808080; stroke:none;" d="M385.667 289.333C385.222 289.778 386.278 289.722 386.333 289.667C386.778 289.222 385.722 289.278 385.667 289.333z"/>
<path style="fill:#aaaaaa; stroke:none;" d="M73 290L74 291L73 290z"/>
<path style="fill:#ffffff; stroke:none;" d="M117 290L118 291L117 290z"/>
<path style="fill:#cccccc; stroke:none;" d="M365.667 290.333C365.222 290.778 366.278 290.722 366.333 290.667C366.778 290.222 365.722 290.278 365.667 290.333z"/>
<path style="fill:#808080; stroke:none;" d="M381.667 290.333C381.222 290.778 382.278 290.722 382.333 290.667C382.778 290.222 381.722 290.278 381.667 290.333z"/>
<path style="fill:#ffffff; stroke:none;" d="M383 290L384 291L383 290z"/>
<path style="fill:#171717; stroke:none;" d="M59 303C72.6318 298.426 86.9068 290.097 102 293.39C106.289 294.326 109.013 297.71 113 299C111.053 291.72 104.761 291.335 98 291.039C86.3857 290.532 66.9433 293.759 59 303z"/>
<path style="fill:#808080; stroke:none;" d="M147 291L148 292L147 291z"/>
<path style="fill:#ffffff; stroke:none;" d="M148 291L149 292L148 291z"/>
<path style="fill:#bfbfbf; stroke:none;" d="M363 291L364 292L363 291z"/>
<path style="fill:#5a5a5a; stroke:none;" d="M356 294C359.817 295.365 363.502 293.756 367 292C363.356 290.989 359.628 293.141 356 294z"/>
<path style="fill:#797979; stroke:none;" d="M379 291L380 292L379 291z"/>
<path style="fill:#aaaaaa; stroke:none;" d="M380 291L381 292L380 291z"/>
<path style="fill:#555555; stroke:none;" d="M69 292L70 293L69 292z"/>
<path style="fill:#808080; stroke:none;" d="M143 292L144 293L143 292z"/>
<path style="fill:#979797; stroke:none;" d="M360.667 292.333C360.222 292.778 361.278 292.722 361.333 292.667C361.778 292.222 360.722 292.278 360.667 292.333z"/>
<path style="fill:#b6b6b6; stroke:none;" d="M376 292L377 293L376 292z"/>
<path style="fill:#808080; stroke:none;" d="M377 292L378 293L377 292z"/>
<path style="fill:#555555; stroke:none;" d="M67 293L68 294L67 293z"/>
<path style="fill:#808080; stroke:none;" d="M88 293L89 294L88 293z"/>
<path style="fill:#b6b6b6; stroke:none;" d="M89 293C90.769 293.779 92.0359 293.912 94 294C92.231 293.221 90.9641 293.088 89 293z"/>
<path style="fill:#000000; stroke:none;" d="M51 310C56.5165 310 62.5725 310.698 68 309.621C81.9261 306.858 95.8267 300.167 110 299C107.808 292.701 98.6239 293.097 93 293.614C81.7608 294.648 72.2312 297.033 62 301.979C57.7471 304.035 53.375 305.784 51 310z"/>
<path style="fill:#ffffff; stroke:none;" d="M97 293L98 294L97 293z"/>
<path style="fill:#aaaaaa; stroke:none;" d="M98.6667 293.333C98.2222 293.778 99.2778 293.722 99.3333 293.667C99.7778 293.222 98.7222 293.278 98.6667 293.333z"/>
<path style="fill:#ffffff; stroke:none;" d="M100 293L101 294L100 293z"/>
<path style="fill:#bfbfbf; stroke:none;" d="M102 293L103 294L102 293z"/>
<path style="fill:#808080; stroke:none;" d="M103 293L104 294L103 293z"/>
<path style="fill:#1f1d1f; stroke:none;" d="M120 293L117 295C119.235 295.545 121.017 295.667 120 293z"/>
<path style="fill:#808080; stroke:none;" d="M140 293L141 294L140 293z"/>
<path style="fill:#ffffff; stroke:none;" d="M356 293L357 294L356 293z"/>
<path style="fill:#8f8f8f; stroke:none;" d="M357.667 293.333C357.222 293.778 358.278 293.722 358.333 293.667C358.778 293.222 357.722 293.278 357.667 293.333z"/>
<path style="fill:#aaaaaa; stroke:none;" d="M373 293L374 294L373 293z"/>
<path style="fill:#d5d5d5; stroke:none;" d="M374 293L375 294L374 293z"/>
<path style="fill:#555555; stroke:none;" d="M65 294L66 295L65 294z"/>
<path style="fill:#050505; stroke:none;" d="M50 307C54.8328 304.754 59.2781 301.843 64 299.395C67.2594 297.705 70.7827 297.014 73 294C65.2432 294.698 53.6666 299.779 50 307z"/>
<path style="fill:#808080; stroke:none;" d="M82 294L83 295L82 294z"/>
<path style="fill:#aaaaaa; stroke:none;" d="M105 294L106 295L105 294z"/>
<path style="fill:#ffffff; stroke:none;" d="M138 294L139 295L138 294z"/>
<path style="fill:#767676; stroke:none;" d="M370 294L371 295L370 294z"/>
<path style="fill:#ffffff; stroke:none;" d="M371.667 294.333C371.222 294.778 372.278 294.722 372.333 294.667C372.778 294.222 371.722 294.278 371.667 294.333z"/>
<path style="fill:#1e1e1e; stroke:none;" d="M52 302C56.6082 302.669 61.862 298.023 66 296C61.0472 294.646 55.8558 299.188 52 302z"/>
<path style="fill:#ffffff; stroke:none;" d="M79 295L80 296L79 295M350 295L351 296L350 295z"/>
<path style="fill:#929292; stroke:none;" d="M351 295L352 296L351 295z"/>
<path style="fill:#ffffff; stroke:none;" d="M368 295L369 296L368 295z"/>
<path style="fill:#808080; stroke:none;" d="M60 296L61 297L60 296z"/>
<path style="fill:#555555; stroke:none;" d="M74 296L75 297L74 296z"/>
<path style="fill:#808080; stroke:none;" d="M130 296L131 297L130 296z"/>
<path style="fill:#cccccc; stroke:none;" d="M348 296L349 297L348 296z"/>
<path style="fill:#999999; stroke:none;" d="M363.667 296.333C363.222 296.778 364.278 296.722 364.333 296.667C364.778 296.222 363.722 296.278 363.667 296.333z"/>
<path style="fill:#808080; stroke:none;" d="M58 297L59 298L58 297z"/>
<path style="fill:#666666; stroke:none;" d="M71 297L72 298L71 297z"/>
<path style="fill:#bfbfd5; stroke:none;" d="M344.667 297.333C344.222 297.778 345.278 297.722 345.333 297.667C345.778 297.222 344.722 297.278 344.667 297.333z"/>
<path style="fill:#575759; stroke:none;" d="M340 302L341 300L335 301C336.506 301.683 337.315 301.826 339 302C333.788 305.211 327.757 306.987 322 309C326.686 310.81 331.683 307.74 336 305.826C343.305 302.585 351.395 300.569 359 298C353.481 296.329 345.59 300.722 340 302z"/>
<path style="fill:#808080; stroke:none;" d="M359 297C360.248 297.685 360.549 297.749 362 298C360.752 297.315 360.452 297.251 359 297z"/>
<path style="fill:#555555; stroke:none;" d="M69 298L70 299L69 298z"/>
<path style="fill:#ffffff; stroke:none;" d="M70 298L71 299L70 298z"/>
<path style="fill:#3b3b3d; stroke:none;" d="M340 302C343.729 301.452 348.52 300.951 351 298C346.848 298.525 342.563 298.443 340 302z"/>
<path style="fill:#aaaaaa; stroke:none;" d="M357.667 298.333C357.222 298.778 358.278 298.722 358.333 298.667C358.778 298.222 357.722 298.278 357.667 298.333z"/>
<path style="fill:#ffffff; stroke:none;" d="M359 298L360 299L359 298z"/>
<path style="fill:#292929; stroke:none;" d="M49 310C49.1962 312.223 48.6353 313.024 48 315C66.2048 317.713 87.8094 309.497 105 304C103.494 303.317 102.685 303.174 101 303C103.491 301.871 105.14 300.983 107 299C93.902 301.81 81.1867 307.162 68 309.535C61.854 310.642 55.2258 310 49 310z"/>
<path style="fill:#111113; stroke:none;" d="M101 302C105.117 303.711 109.647 302.187 114 302C114 305.335 114.158 308.714 113.485 312C112.852 315.094 110.989 318.634 111.606 321.851C112.014 323.973 114.222 325.342 115.836 323.382C117.039 321.922 116.903 319.754 117 318L114 323C113.74 318.723 115.213 315.162 115.791 311C116.343 307.029 115.726 302.985 116 299C110.707 299.759 106.16 300.723 101 302z"/>
<path style="fill:#242424; stroke:none;" d="M121 299L120 305C122.418 303.319 123.084 301.802 124 299L121 299z"/>
<path style="fill:#979797; stroke:none;" d="M339.667 299.333C339.222 299.778 340.278 299.722 340.333 299.667C340.778 299.222 339.722 299.278 339.667 299.333z"/>
<path style="fill:#aaaaaa; stroke:none;" d="M354.667 299.333C354.222 299.778 355.278 299.722 355.333 299.667C355.778 299.222 354.722 299.278 354.667 299.333z"/>
<path style="fill:#ffffff; stroke:none;" d="M356 299L357 300L356 299z"/>
<path style="fill:#bfbfbf; stroke:none;" d="M65 300L66 301L65 300z"/>
<path style="fill:#808080; stroke:none;" d="M336.667 300.333C336.222 300.778 337.278 300.722 337.333 300.667C337.778 300.222 336.722 300.278 336.667 300.333z"/>
<path style="fill:#cccccc; stroke:none;" d="M352.667 300.333C352.222 300.778 353.278 300.722 353.333 300.667C353.778 300.222 352.722 300.278 352.667 300.333z"/>
<path style="fill:#555555; stroke:none;" d="M52 301L53 302L52 301z"/>
<path style="fill:#929292; stroke:none;" d="M62 301L63 302L62 301z"/>
<path style="fill:#8e8e8e; stroke:none;" d="M348 301L349 302L348 301z"/>
<path style="fill:#bfbfbf; stroke:none;" d="M349.667 301.333C349.222 301.778 350.278 301.722 350.333 301.667C350.778 301.222 349.722 301.278 349.667 301.333z"/>
<path style="fill:#ffffff; stroke:none;" d="M351 301L352 302L351 301M61 302L62 303L61 302z"/>
<path style="fill:#393939; stroke:none;" d="M108 302C109.248 302.685 109.548 302.749 111 303C109.752 302.315 109.452 302.251 108 302z"/>
<path style="fill:#ffffff; stroke:none;" d="M330 302L331 303L330 302z"/>
<path style="fill:#4a4a4a; stroke:none;" d="M329 303C331.239 303.811 332.647 303.529 335 303C332.761 302.189 331.353 302.471 329 303z"/>
<path style="fill:#3a3a3c; stroke:none;" d="M280 325L285 326C291.44 320.906 301.314 318.42 309 315.757C319.133 312.246 329.154 307.265 339 303C331.637 300.446 322.338 306.504 316 309.562C308.758 313.057 300.56 315.216 293 318.003C288.565 319.638 282.863 321.094 280 325z"/>
<path style="fill:#ffffff; stroke:none;" d="M347 302L348 303L347 302z"/>
<path style="fill:#191919; stroke:none;" d="M50 313L49 310C52.1977 308.349 55.0224 306.041 58 304C54.8531 303.539 52.627 305.292 50 307L52 303C47.794 305.157 43.6749 310.892 50 313z"/>
<path style="fill:#666666; stroke:none;" d="M58 303L59 304L58 303z"/>
<path style="fill:#ffffff; stroke:none;" d="M327 303L328 304L327 303z"/>
<path style="fill:#999999; stroke:none;" d="M328 303L329 304L328 303z"/>
<path style="fill:#808080; stroke:none;" d="M339 304C340.943 304.622 341.949 304.436 344 304C341.956 303.226 341.155 303.408 339 304M103 304L104 305L103 304z"/>
<path style="fill:#3b3b3b; stroke:none;" d="M121 304C119.851 306.71 119.254 309.068 119 312C121.352 309.491 122.272 307.295 121 304z"/>
<path style="fill:#808080; stroke:none;" d="M122 304L123 305L122 304z"/>
<path style="fill:#bbbbbb; stroke:none;" d="M324.667 304.333C324.222 304.778 325.278 304.722 325.333 304.667C325.778 304.222 324.722 304.278 324.667 304.333z"/>
<path style="fill:#555555; stroke:none;" d="M55 305L56 306L55 305z"/>
<path style="fill:#121212; stroke:none;" d="M89 305C85.7175 306.297 82.481 307.409 79 308C81.4447 309.409 90.5858 309.017 89 305z"/>
<path style="fill:#ffffff; stroke:none;" d="M122 305L123 306L122 305M322 305L323 306L322 305z"/>
<path style="fill:#999999; stroke:none;" d="M336 305C337.248 305.685 337.548 305.749 339 306C337.752 305.315 337.452 305.251 336 305z"/>
<path style="fill:#808080; stroke:none;" d="M78 306L79 307L78 306z"/>
<path style="fill:#676767; stroke:none;" d="M318 306C314.338 309.445 308.673 310.201 304 312C307.461 313.201 320.097 310.985 318 306z"/>
<path style="fill:#848484; stroke:none;" d="M319.667 306.333C319.222 306.778 320.278 306.722 320.333 306.667C320.778 306.222 319.722 306.278 319.667 306.333z"/>
<path style="fill:#cccccc; stroke:none;" d="M334.667 306.333C334.222 306.778 335.278 306.722 335.333 306.667C335.778 306.222 334.722 306.278 334.667 306.333z"/>
<path style="fill:#464646; stroke:none;" d="M74.6667 307.333C74.2222 307.778 75.2778 307.722 75.3333 307.667C75.7778 307.222 74.7222 307.278 74.6667 307.333z"/>
<path style="fill:#929292; stroke:none;" d="M316.667 307.333C316.222 307.778 317.278 307.722 317.333 307.667C317.778 307.222 316.722 307.278 316.667 307.333z"/>
<path style="fill:#bfbfbf; stroke:none;" d="M332.667 307.333C332.222 307.778 333.278 307.722 333.333 307.667C333.778 307.222 332.722 307.278 332.667 307.333z"/>
<path style="fill:#464646; stroke:none;" d="M71.6667 308.333C71.2222 308.778 72.2778 308.722 72.3333 308.667C72.7778 308.222 71.7222 308.278 71.6667 308.333z"/>
<path style="fill:#666666; stroke:none;" d="M90 308L91 309L90 308z"/>
<path style="fill:#ffffff; stroke:none;" d="M91 308L92 309L91 308z"/>
<path style="fill:#808080; stroke:none;" d="M314.667 308.333C314.222 308.778 315.278 308.722 315.333 308.667C315.778 308.222 314.722 308.278 314.667 308.333z"/>
<path style="fill:#aaaaaa; stroke:none;" d="M329 308L330 309L329 308z"/>
<path style="fill:#ffffff; stroke:none;" d="M330.667 308.333C330.222 308.778 331.278 308.722 331.333 308.667C331.778 308.222 330.722 308.278 330.667 308.333z"/>
<path style="fill:#060606; stroke:none;" d="M73 309C74.506 309.683 75.3148 309.826 77 310C75.4939 309.317 74.6852 309.174 73 309z"/>
<path style="fill:#ffffff; stroke:none;" d="M327 309L328 310L327 309z"/>
<path style="fill:#808080; stroke:none;" d="M82 310L83 311L82 310z"/>
<path style="fill:#ffffff; stroke:none;" d="M307 310L308 311L307 310z"/>
<path style="fill:#666666; stroke:none;" d="M322.667 310.333C322.222 310.778 323.278 310.722 323.333 310.667C323.778 310.222 322.722 310.278 322.667 310.333z"/>
<path style="fill:#808080; stroke:none;" d="M120.333 311.667C120.278 311.722 120.222 312.778 120.667 312.333C120.722 312.278 120.778 311.222 120.333 311.667z"/>
<path style="fill:#ffffff; stroke:none;" d="M304 311L305 312L304 311z"/>
<path style="fill:#cccccc; stroke:none;" d="M305 311L306 312L305 311z"/>
<path style="fill:#5b5b5b; stroke:none;" d="M318.667 311.333C318.222 311.778 319.278 311.722 319.333 311.667C319.778 311.222 318.722 311.278 318.667 311.333z"/>
<path style="fill:#808080; stroke:none;" d="M320.667 311.333C320.222 311.778 321.278 311.722 321.333 311.667C321.778 311.222 320.722 311.278 320.667 311.333z"/>
<path style="fill:#aaaaaa; stroke:none;" d="M46 312L47 313L46 312z"/>
<path style="fill:#666666; stroke:none;" d="M113 312L114 313L113 312z"/>
<path style="fill:#29292e; stroke:none;" d="M118 312C117.533 315.695 117.031 319.265 117 323C118.807 319.625 119.49 315.784 120 312L118 312z"/>
<path style="fill:#ffffff; stroke:none;" d="M302 312L303 313L302 312z"/>
<path style="fill:#c6c6c6; stroke:none;" d="M303 312L304 313L303 312z"/>
<path style="fill:#8f8f8f; stroke:none;" d="M317 312C318.248 312.685 318.549 312.749 320 313C318.752 312.315 318.452 312.251 317 312z"/>
<path style="fill:#ffffff; stroke:none;" d="M46 313C46.5451 314.635 46.3648 314.455 48 315C47.4549 313.365 47.6352 313.545 46 313z"/>
<path style="fill:#5b5b5b; stroke:none;" d="M47 313L48 314L47 313z"/>
<path style="fill:#ffffff; stroke:none;" d="M299 313L300 314L299 313z"/>
<path style="fill:#b1b1b1; stroke:none;" d="M300.667 313.333C300.222 313.778 301.278 313.722 301.333 313.667C301.778 313.222 300.722 313.278 300.667 313.333z"/>
<path style="fill:#5a5a5e; stroke:none;" d="M295 317C298.812 316.437 302.343 315.19 306 314C302.447 312.767 297.416 314.114 295 317z"/>
<path style="fill:#747480; stroke:none;" d="M314 313L315 314L314 313z"/>
<path style="fill:#aaaaaa; stroke:none;" d="M315 313L316 314L315 313z"/>
<path style="fill:#808080; stroke:none;" d="M298.667 314.333C298.222 314.778 299.278 314.722 299.333 314.667C299.778 314.222 298.722 314.278 298.667 314.333z"/>
<path style="fill:#d5d5d5; stroke:none;" d="M312.667 314.333C312.222 314.778 313.278 314.722 313.333 314.667C313.778 314.222 312.722 314.278 312.667 314.333z"/>
<path style="fill:#ffffff; stroke:none;" d="M49 315L50 316L49 315z"/>
<path style="fill:#bfbfbf; stroke:none;" d="M50 315L51 316L50 315M57 315L58 316L57 315z"/>
<path style="fill:#808080; stroke:none;" d="M112 315L113 316L112 315z"/>
<path style="fill:#999999; stroke:none;" d="M119 315L120 316L119 315z"/>
<path style="fill:#d5d5d5; stroke:none;" d="M309.667 315.333C309.222 315.778 310.278 315.722 310.333 315.667C310.778 315.222 309.722 315.278 309.667 315.333z"/>
<path style="fill:#808080; stroke:none;" d="M294 316L295 317L294 316z"/>
<path style="fill:#aaaaaa; stroke:none;" d="M307 316L308 317L307 316z"/>
<path style="fill:#ffffff; stroke:none;" d="M308 316L309 317L308 316z"/>
<path style="fill:#575757; stroke:none;" d="M248 335C251.609 335.991 255.186 333.769 259 334C263.124 329.829 268.612 328.323 274 326.301C280.753 323.767 287.302 320.666 294 318C289.241 316.35 284.39 320.006 280 321.747C269.309 325.985 258.245 329.764 248 335z"/>
<path style="fill:#535356; stroke:none;" d="M300 319L304 318C301.954 317.249 301.404 317.344 300 319z"/>
<path style="fill:#8e8e8e; stroke:none;" d="M304 317L305 318L304 317z"/>
<path style="fill:#ffffff; stroke:none;" d="M111 318L112 319L111 318z"/>
<path style="fill:#dbdbdb; stroke:none;" d="M286.667 318.333C286.222 318.778 287.278 318.722 287.333 318.667C287.778 318.222 286.722 318.278 286.667 318.333z"/>
<path style="fill:#6d6d92; stroke:none;" d="M301.667 318.333C301.222 318.778 302.278 318.722 302.333 318.667C302.778 318.222 301.722 318.278 301.667 318.333z"/>
<path style="fill:#6a6a6a; stroke:none;" d="M111 319L112 320L111 319z"/>
<path style="fill:#ffffff; stroke:none;" d="M283 319L284 320L283 319z"/>
<path style="fill:#9f9f9f; stroke:none;" d="M284 319L285 320L284 319z"/>
<path style="fill:#bfbfbf; stroke:none;" d="M299.667 319.333C299.222 319.778 300.278 319.722 300.333 319.667C300.778 319.222 299.722 319.278 299.667 319.333z"/>
<path style="fill:#979797; stroke:none;" d="M282.667 320.333C282.222 320.778 283.278 320.722 283.333 320.667C283.778 320.222 282.722 320.278 282.667 320.333z"/>
<path style="fill:#999999; stroke:none;" d="M296 320C297.248 320.685 297.548 320.749 299 321C297.752 320.315 297.452 320.251 296 320z"/>
<path style="fill:#cccccc; stroke:none;" d="M279 321L280 322L279 321z"/>
<path style="fill:#999999; stroke:none;" d="M280 321L281 322L280 321z"/>
<path style="fill:#808080; stroke:none;" d="M294.667 321.333C294.222 321.778 295.278 321.722 295.333 321.667C295.778 321.222 294.722 321.278 294.667 321.333z"/>
<path style="fill:#ffffff; stroke:none;" d="M110 322L111 323L110 322z"/>
<path style="fill:#898989; stroke:none;" d="M277.667 322.333C277.222 322.778 278.278 322.722 278.333 322.667C278.778 322.222 277.722 322.278 277.667 322.333z"/>
<path style="fill:#8f8f8f; stroke:none;" d="M292 322L293 323L292 322z"/>
<path style="fill:#d5d5d5; stroke:none;" d="M293 322L294 323L293 322z"/>
<path style="fill:#808080; stroke:none;" d="M111.333 323.667C111.278 323.722 111.222 324.778 111.667 324.333C111.722 324.278 111.778 323.222 111.333 323.667z"/>
<path style="fill:#4e4e4e; stroke:none;" d="M116 323L117 324L116 323z"/>
<path style="fill:#cccccc; stroke:none;" d="M290 323L291 324L290 323z"/>
<path style="fill:#ffffff; stroke:none;" d="M291 323L292 324L291 323z"/>
<path style="fill:#808080; stroke:none;" d="M272 324L273 325L272 324z"/>
<path style="fill:#4a4a4a; stroke:none;" d="M278 324C277.608 325.859 276.825 327.275 276 329L283 326C281.307 324.938 279.96 324.48 278 324z"/>
<path style="fill:#5d5d5d; stroke:none;" d="M285.667 324.333C285.222 324.778 286.278 324.722 286.333 324.667C286.778 324.222 285.722 324.278 285.667 324.333z"/>
<path style="fill:#ffffff; stroke:none;" d="M287 324L288 325L287 324M269 325L270 326L269 325z"/>
<path style="fill:#929292; stroke:none;" d="M270 325L271 326L270 325z"/>
<path style="fill:#343437; stroke:none;" d="M259 334C265.608 332.352 273.404 329.911 279 326C273.386 324.151 262.206 329.238 259 334z"/>
<path style="fill:#808080; stroke:none;" d="M283 325L284 326L283 325z"/>
<path style="fill:#aaaaaa; stroke:none;" d="M267 326L268 327L267 326z"/>
<path style="fill:#808080; stroke:none;" d="M281.667 326.333C281.222 326.778 282.278 326.722 282.333 326.667C282.778 326.222 281.722 326.278 281.667 326.333z"/>
<path style="fill:#ffffff; stroke:none;" d="M263 327L264 328L263 327z"/>
<path style="fill:#aaaaaa; stroke:none;" d="M264 327L265 328L264 327z"/>
<path style="fill:#808080; stroke:none;" d="M279.667 327.333C279.222 327.778 280.278 327.722 280.333 327.667C280.778 327.222 279.722 327.278 279.667 327.333z"/>
<path style="fill:#777788; stroke:none;" d="M262.667 328.333C262.222 328.778 263.278 328.722 263.333 328.667C263.778 328.222 262.722 328.278 262.667 328.333z"/>
<path style="fill:#bfbfbf; stroke:none;" d="M277.667 328.333C277.222 328.778 278.278 328.722 278.333 328.667C278.778 328.222 277.722 328.278 277.667 328.333z"/>
<path style="fill:#808080; stroke:none;" d="M260.667 329.333C260.222 329.778 261.278 329.722 261.333 329.667C261.778 329.222 260.722 329.278 260.667 329.333z"/>
<path style="fill:#4b4b4b; stroke:none;" d="M269 330C271.163 330.676 272.732 330.387 275 330C272.761 329.189 271.353 329.471 269 330z"/>
<path style="fill:#aaaaaa; stroke:none;" d="M275 329L276 330L275 329z"/>
<path style="fill:#ffffff; stroke:none;" d="M258 330L259 331L258 330z"/>
<path style="fill:#bfbfbf; stroke:none;" d="M272.667 330.333C272.222 330.778 273.278 330.722 273.333 330.667C273.778 330.222 272.722 330.278 272.667 330.333z"/>
<path style="fill:#545454; stroke:none;" d="M264 332C265.659 332.406 266.242 332.309 268 332C266.191 331.426 265.931 331.535 264 332z"/>
<path style="fill:#808080; stroke:none;" d="M268.667 331.333C268.222 331.778 269.278 331.722 269.333 331.667C269.778 331.222 268.722 331.278 268.667 331.333z"/>
<path style="fill:#ffffff; stroke:none;" d="M270 331L271 332L270 331M251 332L252 333L251 332z"/>
<path style="fill:#cccccc; stroke:none;" d="M252 332L253 333L252 332z"/>
<path style="fill:#808080; stroke:none;" d="M266.667 332.333C266.222 332.778 267.278 332.722 267.333 332.667C267.778 332.222 266.722 332.278 266.667 332.333z"/>
<path style="fill:#d5d5d5; stroke:none;" d="M249.667 333.333C249.222 333.778 250.278 333.722 250.333 333.667C250.778 333.222 249.722 333.278 249.667 333.333z"/>
<path style="fill:#363636; stroke:none;" d="M128 395C134.396 394.035 140.152 389.28 146 386.54C158.851 380.52 171.537 374.778 184.285 368.464C190.687 365.293 198.891 364.493 203 358C210.389 357.819 217.396 353.012 224 350.004C235.581 344.729 248.407 341.117 259 334C250.531 332.363 240.674 339.999 233 343.011C213.51 350.662 193.927 359.974 175 369.13C169.576 371.755 164.59 375.183 159.001 377.497C151.623 380.55 145.138 384.695 138 388.359C134.151 390.334 130.098 390.983 128 395z"/>
<path style="fill:#4b4b4d; stroke:none;" d="M254 336C257.509 337.035 260.676 335.28 264 334C260.562 333.046 257.315 334.881 254 336z"/>
<path style="fill:#808080; stroke:none;" d="M264.667 333.333C264.222 333.778 265.278 333.722 265.333 333.667C265.778 333.222 264.722 333.278 264.667 333.333z"/>
<path style="fill:#ffffff; stroke:none;" d="M247 334L248 335L247 334z"/>
<path style="fill:#bfbfbf; stroke:none;" d="M248 334L249 335L248 334z"/>
<path style="fill:#848484; stroke:none;" d="M249 334L250 335L249 334z"/>
<path style="fill:#9b9b9b; stroke:none;" d="M262 334L263 335L262 334z"/>
<path style="fill:#d5d5d5; stroke:none;" d="M263 334L264 335L263 334z"/>
<path style="fill:#ffffff; stroke:none;" d="M245 335L246 336L245 335z"/>
<path style="fill:#8f8f8f; stroke:none;" d="M246.667 335.333C246.222 335.778 247.278 335.722 247.333 335.667C247.778 335.222 246.722 335.278 246.667 335.333z"/>
<path style="fill:#bfbfbf; stroke:none;" d="M260 335L261 336L260 335z"/>
<path style="fill:#8e8e8e; stroke:none;" d="M244 336L245 337L244 336z"/>
<path style="fill:#4f4f51; stroke:none;" d="M229 343C234.59 344.933 242.499 338.794 248 337C241.818 335.172 234.528 340.63 229 343z"/>
<path style="fill:#929292; stroke:none;" d="M257 336L258 337L257 336z"/>
<path style="fill:#bfbfbf; stroke:none;" d="M258.667 336.333C258.222 336.778 259.278 336.722 259.333 336.667C259.778 336.222 258.722 336.278 258.667 336.333z"/>
<path style="fill:#5d5d5d; stroke:none;" d="M248 341L255 338C251.738 337.045 249.726 338.176 248 341z"/>
<path style="fill:#dbdbdb; stroke:none;" d="M255 337L256 338L255 337z"/>
<path style="fill:#ffffff; stroke:none;" d="M253 338L254 339L253 338M251 339L252 340L251 339z"/>
<path style="fill:#999999; stroke:none;" d="M234 340L235 341L234 340z"/>
<path style="fill:#aaaaaa; stroke:none;" d="M232 341L233 342L232 341z"/>
<path style="fill:#898989; stroke:none;" d="M245 341C246.248 341.685 246.548 341.749 248 342C246.752 341.315 246.452 341.251 245 341z"/>
<path style="fill:#a2a2a2; stroke:none;" d="M229.667 342.333C229.222 342.778 230.278 342.722 230.333 342.667C230.778 342.222 229.722 342.278 229.667 342.333z"/>
<path style="fill:#484848; stroke:none;" d="M234 345C237.244 345.89 239.952 344.241 243 343C239.742 342.096 237.004 343.604 234 345z"/>
<path style="fill:#9f9f9f; stroke:none;" d="M243.667 342.333C243.222 342.778 244.278 342.722 244.333 342.667C244.778 342.222 243.722 342.278 243.667 342.333z"/>
<path style="fill:#999999; stroke:none;" d="M228 343L229 344L228 343z"/>
<path style="fill:#b6b6b6; stroke:none;" d="M241 343L242 344L241 343z"/>
<path style="fill:#ffffff; stroke:none;" d="M242 343L243 344L242 343z"/>
<path style="fill:#616161; stroke:none;" d="M222 346C224.509 346.566 225.22 345.848 227 344C225.125 344.547 223.745 345.11 222 346z"/>
<path style="fill:#cccccc; stroke:none;" d="M239 344L240 345L239 344z"/>
<path style="fill:#ffffff; stroke:none;" d="M240 344L241 345L240 344z"/>
<path style="fill:#bfbfbf; stroke:none;" d="M237 345L238 346L237 345z"/>
<path style="fill:#ffffff; stroke:none;" d="M238 345L239 346L238 345z"/>
<path style="fill:#aaaaaa; stroke:none;" d="M221 346L222 347L221 346z"/>
<path style="fill:#4f4f4f; stroke:none;" d="M231 346C232.248 346.685 232.548 346.749 234 347C232.752 346.315 232.452 346.251 231 346z"/>
<path style="fill:#808080; stroke:none;" d="M234 346L235 347L234 346z"/>
<path style="fill:#ffffff; stroke:none;" d="M217 347L218 348L217 347z"/>
<path style="fill:#b3b3b3; stroke:none;" d="M218 347L219 348L218 347z"/>
<path style="fill:#4c4c4d; stroke:none;" d="M214 351C217.535 350.496 220.56 348.854 224 348C220.274 346.56 216.352 347.807 214 351z"/>
<path style="fill:#7a7a7a; stroke:none;" d="M231 347L232 348L231 347z"/>
<path style="fill:#aaaaaa; stroke:none;" d="M232 347L233 348L232 347z"/>
<path style="fill:#ffffff; stroke:none;" d="M215 348L216 349L215 348z"/>
<path style="fill:#b3b3cc; stroke:none;" d="M216 348L217 349L216 348z"/>
<path style="fill:#464646; stroke:none;" d="M221 351C224.089 351.85 226.256 350.535 229 349C225.993 348.268 223.735 349.632 221 351z"/>
<path style="fill:#787887; stroke:none;" d="M229 348L230 349L229 348z"/>
<path style="fill:#aaaaaa; stroke:none;" d="M230 348L231 349L230 348z"/>
<path style="fill:#ffffff; stroke:none;" d="M213 349L214 350L213 349z"/>
<path style="fill:#b6b6b6; stroke:none;" d="M228 349L229 350L228 349z"/>
<path style="fill:#858585; stroke:none;" d="M212.667 350.333C212.222 350.778 213.278 350.722 213.333 350.667C213.778 350.222 212.722 350.278 212.667 350.333z"/>
<path style="fill:#bfbfbf; stroke:none;" d="M226 350L227 351L226 350z"/>
<path style="fill:#525256; stroke:none;" d="M185 363C188.23 363.758 190.962 361.905 194 360.691C200.734 358.001 207.602 355.424 214 352C210.368 350.743 207.338 352.636 204 354.223C197.695 357.22 191.21 359.826 185 363z"/>
<path style="fill:#d5d5d5; stroke:none;" d="M224 351L225 352L224 351z"/>
<path style="fill:#494949; stroke:none;" d="M217 354L221 353C218.954 352.249 218.404 352.344 217 354z"/>
<path style="fill:#bfbfbf; stroke:none;" d="M221 352L222 353L221 352z"/>
<path style="fill:#ffffff; stroke:none;" d="M204 353L205 354L204 353z"/>
<path style="fill:#aaaaaa; stroke:none;" d="M205 353L206 354L205 353z"/>
<path style="fill:#ffffff; stroke:none;" d="M219 353L220 354L219 353z"/>
<path style="fill:#bfbfbf; stroke:none;" d="M203 354L204 355L203 354z"/>
<path style="fill:#808080; stroke:none;" d="M216.667 354.333C216.222 354.778 217.278 354.722 217.333 354.667C217.778 354.222 216.722 354.278 216.667 354.333M201 355L202 356L201 355z"/>
<path style="fill:#49494c; stroke:none;" d="M202 359C205.572 360.236 208.631 358.372 212 357C208.567 355.358 205.395 357.718 202 359z"/>
<path style="fill:#8e8e8e; stroke:none;" d="M213.667 355.333C213.222 355.778 214.278 355.722 214.333 355.667C214.778 355.222 213.722 355.278 213.667 355.333z"/>
<path style="fill:#ffffff; stroke:none;" d="M198 356L199 357L198 356z"/>
<path style="fill:#999999; stroke:none;" d="M212 356L213 357L212 356z"/>
<path style="fill:#ffffff; stroke:none;" d="M213 356L214 357L213 356z"/>
<path style="fill:#7a7a7a; stroke:none;" d="M196.667 357.333C196.222 357.778 197.278 357.722 197.333 357.667C197.778 357.222 196.722 357.278 196.667 357.333z"/>
<path style="fill:#aaaaaa; stroke:none;" d="M210 357L211 358L210 357z"/>
<path style="fill:#ffffff; stroke:none;" d="M194 358L195 359L194 358z"/>
<path style="fill:#898989; stroke:none;" d="M195 358L196 359L195 358z"/>
<path style="fill:#bfbfbf; stroke:none;" d="M208 358L209 359L208 358z"/>
<path style="fill:#ffffff; stroke:none;" d="M209 358L210 359L209 358z"/>
<path style="fill:#aaaaaa; stroke:none;" d="M206 359L207 360L206 359z"/>
<path style="fill:#ffffff; stroke:none;" d="M207 359L208 360L207 359M189 360L190 361L189 360z"/>
<path style="fill:#6a6a6a; stroke:none;" d="M202 360C203.248 360.685 203.548 360.749 205 361C203.752 360.315 203.452 360.251 202 360z"/>
<path style="fill:#ffffff; stroke:none;" d="M187 361L188 362L187 361z"/>
<path style="fill:#808080; stroke:none;" d="M200.667 361.333C200.222 361.778 201.278 361.722 201.333 361.667C201.778 361.222 200.722 361.278 200.667 361.333z"/>
<path style="fill:#cccccc; stroke:none;" d="M186 362L187 363L186 362z"/>
<path style="fill:#8b8b8b; stroke:none;" d="M198.667 362.333C198.222 362.778 199.278 362.722 199.333 362.667C199.778 362.222 198.722 362.278 198.667 362.333z"/>
<path style="fill:#ffffff; stroke:none;" d="M200 362L201 363L200 362z"/>
<path style="fill:#9999cc; stroke:none;" d="M184 363L185 364L184 363z"/>
<path style="fill:#606060; stroke:none;" d="M195.667 363.333C195.222 363.778 196.278 363.722 196.333 363.667C196.778 363.222 195.722 363.278 195.667 363.333z"/>
<path style="fill:#aaaaaa; stroke:none;" d="M197.667 363.333C197.222 363.778 198.278 363.722 198.333 363.667C198.778 363.222 197.722 363.278 197.667 363.333z"/>
<path style="fill:#888888; stroke:none;" d="M181.667 364.333C181.222 364.778 182.278 364.722 182.333 364.667C182.778 364.222 181.722 364.278 181.667 364.333z"/>
<path style="fill:#565659; stroke:none;" d="M174 368C177.835 369.064 181.607 366.806 185 365C181.155 364.205 177.539 366.548 174 368z"/>
<path style="fill:#aaaaaa; stroke:none;" d="M195 364L196 365L195 364z"/>
<path style="fill:#ffffff; stroke:none;" d="M196 364L197 365L196 364z"/>
<path style="fill:#959595; stroke:none;" d="M192 365L193 366L192 365z"/>
<path style="fill:#ffffff; stroke:none;" d="M193 365L194 366L193 365z"/>
<path style="fill:#858585; stroke:none;" d="M190 366L191 367L190 366z"/>
<path style="fill:#bfbfff; stroke:none;" d="M191 366L192 367L191 366z"/>
<path style="fill:#ffffff; stroke:none;" d="M175 367L176 368L175 367z"/>
<path style="fill:#4f4f4f; stroke:none;" d="M183 370L189 368C186.204 367.024 184.69 367.6 183 370z"/>
<path style="fill:#aaaaaa; stroke:none;" d="M189 367L190 368L189 367z"/>
<path style="fill:#ffffff; stroke:none;" d="M173 368L174 369L173 368z"/>
<path style="fill:#808080; stroke:none;" d="M186 368L187 369L186 368z"/>
<path style="fill:#cccccc; stroke:none;" d="M171 369L172 370L171 369z"/>
<path style="fill:#484848; stroke:none;" d="M167 372C169.837 372.675 171.522 371.505 174 370C171.31 369.595 169.444 370.775 167 372z"/>
<path style="fill:#808080; stroke:none;" d="M184 369L185 370L184 369z"/>
<path style="fill:#ffffff; stroke:none;" d="M169 370L170 371L169 370z"/>
<path style="fill:#5d5d5d; stroke:none;" d="M180.667 370.333C180.222 370.778 181.278 370.722 181.333 370.667C181.778 370.222 180.722 370.278 180.667 370.333z"/>
<path style="fill:#999999; stroke:none;" d="M182 370L183 371L182 370z"/>
<path style="fill:#929292; stroke:none;" d="M167.667 371.333C167.222 371.778 168.278 371.722 168.333 371.667C168.778 371.222 167.722 371.278 167.667 371.333z"/>
<path style="fill:#555555; stroke:none;" d="M178.667 371.333C178.222 371.778 179.278 371.722 179.333 371.667C179.778 371.222 178.722 371.278 178.667 371.333z"/>
<path style="fill:#9d9d9d; stroke:none;" d="M180 371L181 372L180 371z"/>
<path style="fill:#ffffff; stroke:none;" d="M181 371L182 372L181 371z"/>
<path style="fill:#929292; stroke:none;" d="M166 372L167 373L166 372z"/>
<path style="fill:#515151; stroke:none;" d="M168 377C171.177 375.918 174.083 374.66 177 373C173.512 372.416 170.068 374.18 168 377z"/>
<path style="fill:#8b8b8b; stroke:none;" d="M177 372L178 373L177 372z"/>
<path style="fill:#b6b6b6; stroke:none;" d="M178 372L179 373L178 372z"/>
<path style="fill:#ffffff; stroke:none;" d="M179 372L180 373L179 372z"/>
<path style="fill:#999999; stroke:none;" d="M163 373L164 374L163 373z"/>
<path style="fill:#515155; stroke:none;" d="M155 379C159.312 378.076 163.179 376.182 167 374C162.512 372.755 157.892 375.686 155 379z"/>
<path style="fill:#cccccc; stroke:none;" d="M176 373L177 374L176 373z"/>
<path style="fill:#ffffff; stroke:none;" d="M177 373L178 374L177 373M161 374L162 375L161 374M174 374L175 375L174 374M172 375L173 376L172 375M156 376L157 377L156 376z"/>
<path style="fill:#808080; stroke:none;" d="M169 376L170 377L169 376z"/>
<path style="fill:#cccccc; stroke:none;" d="M170 376L171 377L170 376z"/>
<path style="fill:#bfbfbf; stroke:none;" d="M155 377L156 378L155 377z"/>
<path style="fill:#808080; stroke:none;" d="M166.667 377.333C166.222 377.778 167.278 377.722 167.333 377.667C167.778 377.222 166.722 377.278 166.667 377.333z"/>
<path style="fill:#888888; stroke:none;" d="M153.667 378.333C153.222 378.778 154.278 378.722 154.333 378.667C154.778 378.222 153.722 378.278 153.667 378.333z"/>
<path style="fill:#aaaaaa; stroke:none;" d="M165.667 378.333C165.222 378.778 166.278 378.722 166.333 378.667C166.778 378.222 165.722 378.278 165.667 378.333z"/>
<path style="fill:#808080; stroke:none;" d="M151 379L152 380L151 379z"/>
<path style="fill:#979797; stroke:none;" d="M163 379L164 380L163 379z"/>
<path style="fill:#cccccc; stroke:none;" d="M164 379L165 380L164 379z"/>
<path style="fill:#4c4c4c; stroke:none;" d="M130 390C136.346 392.245 147.854 384.624 152 380C144.229 381.682 137.45 387.11 130 390z"/>
<path style="fill:#929292; stroke:none;" d="M161 380L162 381L161 380z"/>
<path style="fill:#ffffff; stroke:none;" d="M162.667 380.333C162.222 380.778 163.278 380.722 163.333 380.667C163.778 380.222 162.722 380.278 162.667 380.333M147 381L148 382L147 381z"/>
<path style="fill:#808080; stroke:none;" d="M159 381L160 382L159 381z"/>
<path style="fill:#636363; stroke:none;" d="M153 383C154.943 383.622 155.949 383.436 158 383C156.057 382.378 155.051 382.564 153 383z"/>
<path style="fill:#808080; stroke:none;" d="M143 383L144 384L143 383z"/>
<path style="fill:#ffffff; stroke:none;" d="M156 383L157 384L156 383z"/>
<path style="fill:#bfbfbf; stroke:none;" d="M141 384L142 385L141 384z"/>
<path style="fill:#4a4a4a; stroke:none;" d="M138 390C142.68 391.283 148.021 387.322 152 385C147.457 383.934 142.024 387.941 138 390z"/>
<path style="fill:#929292; stroke:none;" d="M152 384L153 385L152 384z"/>
<path style="fill:#808080; stroke:none;" d="M139.667 385.333C139.222 385.778 140.278 385.722 140.333 385.667C140.778 385.222 139.722 385.278 139.667 385.333z"/>
<path style="fill:#b6b6b6; stroke:none;" d="M151 385L152 386L151 385z"/>
<path style="fill:#8e8e8e; stroke:none;" d="M137.667 386.333C137.222 386.778 138.278 386.722 138.333 386.667C138.778 386.222 137.722 386.278 137.667 386.333z"/>
<path style="fill:#808080; stroke:none;" d="M149.667 386.333C149.222 386.778 150.278 386.722 150.333 386.667C150.778 386.222 149.722 386.278 149.667 386.333M136 387L137 388L136 387z"/>
<path style="fill:#aaaaaa; stroke:none;" d="M147.667 387.333C147.222 387.778 148.278 387.722 148.333 387.667C148.778 387.222 147.722 387.278 147.667 387.333z"/>
<path style="fill:#ffffff; stroke:none;" d="M133 388L134 389L133 388M131 389L132 390L131 389M143 389L144 390L143 389z"/>
<path style="fill:#808080; stroke:none;" d="M141 390L142 391L141 390z"/>
<path style="fill:#aaaaaa; stroke:none;" d="M127 391L128 392L127 391z"/>
<path style="fill:#505050; stroke:none;" d="M110 402C115.654 404.628 120.296 401.111 125 398C124.402 396.805 124.534 397.023 123 396C124.645 396.177 124.647 396.141 126 397L131 396C129.752 395.315 129.452 395.251 128 395L130 391C123.077 393.333 115.902 397.699 110 402z"/>
<path style="fill:#4f4f4f; stroke:none;" d="M133 394L138 392C135.491 391.434 134.78 392.152 133 394z"/>
<path style="fill:#999999; stroke:none;" d="M138 391L139 392L138 391z"/>
<path style="fill:#aaaaaa; stroke:none;" d="M136.667 392.333C136.222 392.778 137.278 392.722 137.333 392.667C137.778 392.222 136.722 392.278 136.667 392.333z"/>
<path style="fill:#808080; stroke:none;" d="M125 393L126 394L125 393z"/>
<path style="fill:#9f9f9f; stroke:none;" d="M135 393L136 394L135 393z"/>
<path style="fill:#797979; stroke:none;" d="M132 394L133 395L132 394z"/>
<path style="fill:#bfbfbf; stroke:none;" d="M133 394L134 395L133 394z"/>
<path style="fill:#ffffff; stroke:none;" d="M134 394L135 395L134 394z"/>
<path style="fill:#303030; stroke:none;" d="M123 397C125.092 396.594 125.02 396.783 126 395C124.42 395.684 124.223 395.805 123 397z"/>
<path style="fill:#717171; stroke:none;" d="M125 397C126.809 397.574 127.069 397.465 129 397C127.341 396.594 126.758 396.691 125 397z"/>
<path style="fill:#ffffff; stroke:none;" d="M129 396L130 397L129 396z"/>
<path style="fill:#aaaaaa; stroke:none;" d="M124 398L125 399L124 398z"/>
<path style="fill:#9f9f9f; stroke:none;" d="M122 399L123 400L122 399z"/>
<path style="fill:#808080; stroke:none;" d="M112 400L113 401L112 400z"/>
<path style="fill:#9f9f9f; stroke:none;" d="M121 400L122 401L121 400z"/>
<path style="fill:#808080; stroke:none;" d="M119 401L120 402L119 401z"/>
<path style="fill:#363636; stroke:none;" d="M108 405C110.61 405.173 112.48 404.756 115 404C112.169 402.85 110.412 403.173 108 405z"/>
</svg>
